<?xml version="1.0" encoding="utf-8"?>
<!-- Generator: Adobe Illustrator 26.4.1, SVG Export Plug-In . SVG Version: 6.00 Build 0)  -->
<svg version="1.1" id="Layer_1" xmlns="http://www.w3.org/2000/svg" xmlns:xlink="http://www.w3.org/1999/xlink" x="0px" y="0px"
	 viewBox="0 0 432 580" style="enable-background:new 0 0 432 580;" xml:space="preserve">
<style type="text/css">
	.st0{fill:#13E0E5;}
	.st1{fill:#FFFFFF;}
	.st2{fill:#1434CB;}
	.st3{fill:none;}
	.st4{fill:#FF5F00;}
	.st5{fill:#EB001B;}
	.st6{fill:#F79E1B;}
	.st7{fill:#A3A5A8;}
	.st8{fill:none;stroke:#E5E7EB;}
	.st9{fill:#4F5051;}
	.st10{opacity:0.66;}
	.st11{fill:#555656;}
</style>
<path class="st0" d="M93,496.1h246c4.4,0,8,3.6,8,8v22c0,4.4-3.6,8-8,8H93c-4.4,0-8-3.6-8-8v-22C85,499.7,88.6,496.1,93,496.1z"/>
<g>
	<path class="st1" d="M49.4,167.2h35c1.7,0,3,1.4,3,3v21.3c0,1.7-1.4,3-3,3h-35c-1.7,0-3-1.4-3-3v-21.3
		C46.3,168.6,47.7,167.2,49.4,167.2z"/>
	<path class="st2" d="M71.7,175.6c-2.3,0-4.3,1.2-4.3,3.4c0,2.5,3.6,2.7,3.6,3.9c0,0.5-0.6,1-1.6,1c-1.5,0-2.6-0.7-2.6-0.7l-0.5,2.2
		c0,0,1.3,0.6,2.9,0.6c2.5,0,4.4-1.2,4.4-3.4c0-2.6-3.6-2.8-3.6-4c0-0.4,0.5-0.9,1.5-0.9c1.2,0,2.1,0.5,2.1,0.5l0.5-2.1
		C74.2,176,73.1,175.6,71.7,175.6L71.7,175.6z M51,175.7l0,0.3c0,0,1,0.2,1.8,0.5c1.1,0.4,1.2,0.6,1.4,1.4l2,7.8h2.7l4.2-10h-2.7
		l-2.7,6.8l-1.1-5.8c-0.1-0.7-0.6-1-1.2-1L51,175.7L51,175.7z M64.1,175.7l-2.1,10h2.6l2.1-10H64.1z M78.6,175.7
		c-0.6,0-0.9,0.3-1.2,0.9l-3.8,9.1h2.7l0.5-1.5h3.3l0.3,1.5h2.4l-2.1-10H78.6z M78.9,178.4l0.8,3.8h-2.2L78.9,178.4L78.9,178.4z"/>
	<path class="st3" d="M49.4,168h35c1.3,0,2.3,1,2.3,2.3v21.3c0,1.3-1,2.3-2.3,2.3h-35c-1.3,0-2.3-1-2.3-2.3v-21.3
		C47.1,169,48.1,168,49.4,168z"/>
</g>
<g>
	<path class="st1" d="M103,167.2h35c1.7,0,3,1.4,3,3v21.3c0,1.7-1.4,3-3,3h-35c-1.7,0-3-1.4-3-3v-21.3
		C100,168.6,101.3,167.2,103,167.2z"/>
	<path class="st4" d="M117,174.6h7v12.6h-7V174.6z"/>
	<path class="st5" d="M117.4,180.8c0-2.6,1.2-4.8,3-6.3c-1.3-1.1-3.1-1.7-4.9-1.7c-4.4,0-8,3.6-8,8s3.6,8,8,8c1.9,0,3.6-0.6,4.9-1.7
		C118.6,185.7,117.4,183.4,117.4,180.8z"/>
	<path class="st6" d="M133.4,180.8c0,4.4-3.6,8-8,8c-1.9,0-3.6-0.6-4.9-1.7c1.9-1.5,3-3.7,3-6.3s-1.2-4.8-3-6.3
		c1.3-1.1,3.1-1.7,4.9-1.7C129.8,172.8,133.4,176.4,133.4,180.8z"/>
	<path class="st3" d="M103,168h35c1.3,0,2.3,1,2.3,2.3v21.3c0,1.3-1,2.3-2.3,2.3h-35c-1.3,0-2.3-1-2.3-2.3v-21.3
		C100.7,169,101.7,168,103,168z"/>
</g>
<g>
	<path class="st7" d="M45.3,216.6h2.4l4.2,7.5l1.4,2.9h0.1c-0.1-1.4-0.3-3.1-0.3-4.6v-5.8h2.3V230h-2.4l-4.2-7.6l-1.4-2.9h-0.1
		c0.1,1.4,0.3,3,0.3,4.5v5.9h-2.3L45.3,216.6L45.3,216.6z"/>
	<path class="st7" d="M57.8,224.9c0-3.4,2.3-5.3,4.8-5.3s4.8,1.9,4.8,5.3s-2.3,5.3-4.8,5.3S57.8,228.3,57.8,224.9z M65,224.9
		c0-2-0.9-3.4-2.4-3.4s-2.4,1.3-2.4,3.4s0.9,3.4,2.4,3.4S65,227,65,224.9z"/>
	<path class="st7" d="M69.8,219.9h1.9l0.2,1.4H72c0.8-0.9,1.8-1.6,3.1-1.6c1.5,0,2.3,0.7,2.8,1.8c1-1,2-1.8,3.2-1.8
		c2.1,0,3.1,1.5,3.1,4v6.3h-2.4v-6c0-1.7-0.5-2.3-1.6-2.3c-0.6,0-1.3,0.4-2.1,1.3v7h-2.4v-6c0-1.7-0.5-2.3-1.6-2.3
		c-0.6,0-1.3,0.4-2.1,1.3v7h-2.4L69.8,219.9L69.8,219.9z"/>
	<path class="st7" d="M89.2,228.9L89.2,228.9l-0.3,1.1h-1.9v-14.5h2.4v3.8l-0.1,1.7c0.8-0.7,1.9-1.2,2.9-1.2c2.5,0,4,2,4,5.1
		c0,3.5-2.1,5.4-4.3,5.4C91,230.2,90,229.7,89.2,228.9L89.2,228.9z M93.8,224.8c0-2-0.7-3.2-2.2-3.2c-0.7,0-1.4,0.4-2.2,1.1v4.7
		c0.7,0.6,1.4,0.8,2,0.8C92.8,228.3,93.8,227.1,93.8,224.8z"/>
	<path class="st7" d="M98.6,219.9h1.9l0.2,1.8h0.1c0.7-1.3,1.8-2,2.9-2c0.5,0,0.8,0.1,1.1,0.2l-0.4,2.1c-0.3-0.1-0.6-0.2-1-0.2
		c-0.8,0-1.8,0.6-2.4,2.1v6.1h-2.4L98.6,219.9L98.6,219.9z"/>
	<path class="st7" d="M105.4,224.9c0-3.3,2.3-5.3,4.6-5.3c2.7,0,4.2,2,4.2,4.8c0,0.4-0.1,0.9-0.1,1.1h-6.4c0.2,1.8,1.3,2.8,3,2.8
		c0.9,0,1.6-0.3,2.3-0.7l0.8,1.5c-1,0.6-2.2,1.1-3.4,1.1C107.6,230.2,105.4,228.3,105.4,224.9L105.4,224.9z M112.2,224
		c0-1.6-0.7-2.5-2.1-2.5c-1.2,0-2.2,0.9-2.4,2.5H112.2z"/>
</g>
<g>
	<path class="st1" d="M172.2,515.6c0-4.4,2.8-7,6.1-7c1.7,0,3,0.8,3.9,1.7l-1.3,1.5c-0.7-0.7-1.5-1.2-2.5-1.2
		c-2.2,0-3.8,1.8-3.8,4.9s1.4,4.9,3.7,4.9c1.2,0,2.1-0.5,2.9-1.4l1.3,1.5c-1.1,1.3-2.5,2-4.2,2C174.9,522.5,172.2,520,172.2,515.6
		L172.2,515.6z"/>
	<path class="st1" d="M183.9,517.2c0-3.4,2.3-5.3,4.8-5.3s4.8,1.9,4.8,5.3s-2.3,5.3-4.8,5.3S183.9,520.6,183.9,517.2z M191,517.2
		c0-2-0.9-3.4-2.4-3.4s-2.4,1.3-2.4,3.4s0.9,3.3,2.4,3.3S191,519.2,191,517.2z"/>
	<path class="st1" d="M195.8,512.2h1.9l0.2,1.4h0.1c0.9-0.9,1.9-1.6,3.3-1.6c2.2,0,3.1,1.5,3.1,4v6.3h-2.4v-6c0-1.7-0.5-2.3-1.6-2.3
		c-0.9,0-1.5,0.4-2.3,1.3v7h-2.4L195.8,512.2L195.8,512.2z"/>
	<path class="st1" d="M207.7,518.9v-4.8h-1.4v-1.8l1.6-0.1l0.3-2.8h2v2.8h2.6v1.9H210v4.8c0,1.2,0.5,1.8,1.4,1.8
		c0.3,0,0.8-0.1,1.1-0.2l0.4,1.7c-0.6,0.2-1.2,0.4-2.1,0.4C208.5,522.5,207.7,521,207.7,518.9z"/>
	<path class="st1" d="M214.4,509.1c0-0.8,0.6-1.3,1.5-1.3s1.5,0.5,1.5,1.3s-0.6,1.3-1.5,1.3S214.4,509.9,214.4,509.1z M214.7,512.2
		h2.4v10.1h-2.4V512.2z"/>
	<path class="st1" d="M220.1,512.2h1.9l0.2,1.4h0.1c0.9-0.9,1.9-1.6,3.3-1.6c2.2,0,3.1,1.5,3.1,4v6.3h-2.4v-6c0-1.7-0.5-2.3-1.6-2.3
		c-0.9,0-1.5,0.4-2.3,1.3v7h-2.4L220.1,512.2L220.1,512.2z"/>
	<path class="st1" d="M231.5,518.5v-6.3h2.4v6c0,1.7,0.5,2.3,1.6,2.3c0.9,0,1.5-0.4,2.2-1.4v-6.9h2.4v10.1H238l-0.2-1.5h-0.1
		c-0.9,1-1.9,1.7-3.2,1.7C232.4,522.5,231.4,521,231.5,518.5L231.5,518.5z"/>
	<path class="st1" d="M242.4,519.5c0-2.2,1.8-3.3,5.9-3.7c0-1.1-0.5-2-1.8-2c-1,0-1.9,0.5-2.8,1l-0.9-1.6c1.1-0.7,2.5-1.3,4.1-1.3
		c2.5,0,3.8,1.5,3.8,4.4v6h-1.9l-0.2-1.1h-0.1c-0.9,0.8-1.9,1.4-3.1,1.4C243.7,522.5,242.4,521.3,242.4,519.5L242.4,519.5z
		 M248.4,519.5v-2.3c-2.7,0.3-3.6,1.1-3.6,2.1c0,0.9,0.6,1.3,1.4,1.3S247.6,520.2,248.4,519.5L248.4,519.5z"/>
	<path class="st1" d="M253.6,512.2h1.9l0.2,1.8h0.1c0.7-1.3,1.8-2,2.9-2c0.5,0,0.8,0.1,1.1,0.2l-0.4,2c-0.4-0.1-0.6-0.2-1-0.2
		c-0.8,0-1.8,0.5-2.4,2.1v6.1h-2.4L253.6,512.2L253.6,512.2z"/>
</g>
<path class="st8" d="M52.5,324.6h326.6c5.5,0,10,4.5,10,10v23.9c0,5.5-4.5,10-10,10H52.5c-5.5,0-10-4.5-10-10v-23.9
	C42.6,329.1,47,324.6,52.5,324.6z"/>
<g>
	<path class="st7" d="M45.3,301.3h2.4l4.2,7.5l1.4,2.9h0.1c-0.1-1.4-0.3-3.1-0.3-4.6v-5.8h2.3v13.4h-2.4l-4.2-7.5l-1.4-2.9h-0.1
		c0.1,1.4,0.3,3,0.3,4.5v5.9h-2.3C45.3,314.7,45.3,301.3,45.3,301.3z"/>
	<path class="st7" d="M58.4,311v-6.3h2.4v6c0,1.7,0.5,2.3,1.6,2.3c0.9,0,1.5-0.4,2.2-1.4v-6.9h2.4v10.1H65l-0.2-1.5h-0.1
		c-0.9,1-1.9,1.7-3.2,1.7C59.3,314.9,58.4,313.5,58.4,311L58.4,311z M61.5,301.8l3-3.6l1.6,1.6l-3.5,3.2L61.5,301.8L61.5,301.8z"/>
	<path class="st7" d="M69.9,304.6h1.9L72,306h0.1c0.8-0.9,1.8-1.6,3.1-1.6c1.5,0,2.3,0.7,2.8,1.8c1-1,2-1.8,3.2-1.8
		c2.1,0,3.1,1.5,3.1,4v6.3H82v-6c0-1.7-0.5-2.3-1.6-2.3c-0.6,0-1.3,0.4-2.1,1.3v7h-2.4v-6c0-1.7-0.5-2.3-1.6-2.3
		c-0.6,0-1.3,0.4-2.1,1.3v7h-2.4L69.9,304.6L69.9,304.6z"/>
	<path class="st7" d="M86.6,309.7c0-3.3,2.3-5.3,4.6-5.3c2.7,0,4.2,2,4.2,4.8c0,0.5-0.1,0.9-0.1,1.1h-6.4c0.2,1.8,1.3,2.8,3,2.8
		c0.9,0,1.6-0.3,2.3-0.7l0.8,1.5c-1,0.6-2.2,1.1-3.4,1.1C88.7,314.9,86.6,313,86.6,309.7L86.6,309.7z M93.3,308.7
		c0-1.5-0.7-2.5-2.1-2.5c-1.2,0-2.2,0.9-2.4,2.5H93.3z"/>
	<path class="st7" d="M97.6,304.6h1.9l0.2,1.8h0.1c0.7-1.3,1.8-2,2.9-2c0.5,0,0.8,0.1,1.1,0.2l-0.4,2c-0.3-0.1-0.6-0.2-1-0.2
		c-0.8,0-1.8,0.5-2.4,2.1v6.1h-2.4L97.6,304.6L97.6,304.6z"/>
	<path class="st7" d="M104.4,309.7c0-3.4,2.3-5.3,4.8-5.3s4.8,1.9,4.8,5.3s-2.3,5.3-4.8,5.3S104.4,313,104.4,309.7z M111.5,309.7
		c0-2-0.9-3.4-2.4-3.4s-2.4,1.3-2.4,3.4s0.9,3.4,2.4,3.4S111.5,311.7,111.5,309.7z"/>
	<path class="st7" d="M119.7,309.7c0-3.3,2.1-5.3,4.3-5.3c1.1,0,1.9,0.4,2.6,1.1l-0.1-1.6v-3.6h2.4v14.5h-1.9l-0.2-1.1h-0.1
		c-0.8,0.8-1.8,1.3-2.9,1.3C121.3,315,119.7,313,119.7,309.7L119.7,309.7z M126.5,311.9v-4.7c-0.7-0.6-1.4-0.8-2.1-0.8
		c-1.3,0-2.3,1.2-2.3,3.3s0.8,3.4,2.3,3.4C125.2,313,125.8,312.7,126.5,311.9z"/>
	<path class="st7" d="M131.2,309.7c0-3.3,2.3-5.3,4.6-5.3c2.7,0,4.2,2,4.2,4.8c0,0.5-0.1,0.9-0.1,1.1h-6.4c0.2,1.8,1.4,2.8,3,2.8
		c0.9,0,1.6-0.3,2.3-0.7l0.8,1.5c-1,0.6-2.2,1.1-3.4,1.1C133.4,314.9,131.2,313,131.2,309.7L131.2,309.7z M138,308.7
		c0-1.5-0.7-2.5-2.1-2.5c-1.2,0-2.2,0.9-2.4,2.5H138L138,308.7z"/>
	<path class="st7" d="M149.3,303.3h-3.9v-2h10.1v2h-3.9v11.4h-2.4V303.3z"/>
	<path class="st7" d="M155.6,312c0-2.2,1.8-3.3,5.9-3.7c0-1.1-0.5-2-1.8-2c-1,0-1.9,0.5-2.8,1l-0.9-1.6c1.1-0.7,2.5-1.3,4.1-1.3
		c2.5,0,3.8,1.5,3.8,4.4v6H162l-0.2-1.1h-0.1c-0.9,0.8-1.9,1.4-3.1,1.4C156.8,314.9,155.6,313.7,155.6,312L155.6,312z M161.6,312
		v-2.3c-2.7,0.3-3.6,1.1-3.6,2.1c0,0.9,0.6,1.3,1.4,1.3S160.8,312.7,161.6,312L161.6,312z"/>
	<path class="st7" d="M166.8,304.6h1.9l0.2,1.8h0.1c0.7-1.3,1.8-2,2.9-2c0.5,0,0.8,0.1,1.1,0.2l-0.4,2c-0.4-0.1-0.6-0.2-1-0.2
		c-0.8,0-1.8,0.5-2.4,2.1v6.1h-2.4L166.8,304.6L166.8,304.6z"/>
	<path class="st7" d="M172,318.7l0.4-1.8c0.3,0.1,0.6,0.2,0.9,0.2c0.9,0,1.2-0.6,1.2-1.8v-10.6h2.4v10.6c0,2.1-0.8,3.7-3.2,3.7
		C172.9,318.9,172.4,318.8,172,318.7L172,318.7z M174.2,301.5c0-0.8,0.6-1.3,1.5-1.3s1.5,0.5,1.5,1.3s-0.6,1.3-1.5,1.3
		S174.2,302.3,174.2,301.5z"/>
	<path class="st7" d="M179.1,309.7c0-3.3,2.3-5.3,4.6-5.3c2.7,0,4.2,2,4.2,4.8c0,0.5-0.1,0.9-0.1,1.1h-6.4c0.2,1.8,1.4,2.8,3,2.8
		c0.9,0,1.6-0.3,2.3-0.7l0.8,1.5c-1,0.6-2.2,1.1-3.4,1.1C181.3,314.9,179.1,313,179.1,309.7L179.1,309.7z M185.9,308.7
		c0-1.5-0.7-2.5-2.1-2.5c-1.2,0-2.2,0.9-2.4,2.5H185.9L185.9,308.7z"/>
	<path class="st7" d="M190.3,311.3v-4.8h-1.4v-1.8l1.6-0.1l0.3-2.8h2v2.8h2.6v1.9h-2.6v4.8c0,1.2,0.5,1.8,1.4,1.8
		c0.3,0,0.8-0.1,1.1-0.2l0.4,1.7c-0.6,0.2-1.2,0.4-2.1,0.4C191.2,315,190.3,313.5,190.3,311.3z"/>
	<path class="st7" d="M196.4,312c0-2.2,1.8-3.3,5.9-3.7c0-1.1-0.5-2-1.8-2c-1,0-1.9,0.5-2.8,1l-0.9-1.6c1.1-0.7,2.5-1.3,4.1-1.3
		c2.5,0,3.8,1.5,3.8,4.4v6h-1.9l-0.2-1.1h-0.1c-0.9,0.8-1.9,1.4-3.1,1.4C197.6,314.9,196.4,313.7,196.4,312L196.4,312z M202.3,312
		v-2.3c-2.7,0.3-3.6,1.1-3.6,2.1c0,0.9,0.6,1.3,1.4,1.3S201.6,312.7,202.3,312L202.3,312z"/>
</g>
<g>
	<path class="st7" d="M45.5,391.5h8.1v2h-5.7v3.8h4.9v2h-4.9v5.6h-2.4L45.5,391.5L45.5,391.5z"/>
	<path class="st7" d="M54.7,399.8c0-3.3,2.3-5.3,4.6-5.3c2.7,0,4.2,2,4.2,4.8c0,0.5,0,0.9-0.1,1.1H57c0.2,1.8,1.3,2.8,3,2.8
		c0.9,0,1.6-0.3,2.3-0.7l0.8,1.5c-1,0.6-2.2,1.1-3.5,1.1C56.9,405.1,54.7,403.2,54.7,399.8L54.7,399.8z M61.5,398.9
		c0-1.5-0.7-2.5-2.1-2.5c-1.2,0-2.2,0.9-2.4,2.5H61.5z"/>
	<path class="st7" d="M65.1,399.8c0-3.4,2.4-5.3,5.1-5.3c1.3,0,2.2,0.5,2.9,1.1l-1.2,1.5c-0.5-0.5-1-0.7-1.7-0.7
		c-1.6,0-2.8,1.3-2.8,3.4s1.1,3.4,2.7,3.4c0.8,0,1.5-0.4,2.1-0.9l1,1.6c-0.9,0.8-2.1,1.2-3.3,1.2C67.2,405.1,65.1,403.2,65.1,399.8
		L65.1,399.8z"/>
	<path class="st7" d="M75.3,390.4h2.4v3.8l-0.1,1.9c0.8-0.8,1.8-1.5,3.2-1.5c2.2,0,3.1,1.5,3.1,4v6.3h-2.4v-6c0-1.7-0.5-2.3-1.6-2.3
		c-0.9,0-1.5,0.4-2.3,1.3v7h-2.4L75.3,390.4L75.3,390.4z"/>
	<path class="st7" d="M86.2,402.2c0-2.2,1.8-3.3,5.9-3.7c0-1.1-0.5-2-1.8-2c-1,0-1.9,0.5-2.8,1l-0.9-1.6c1.1-0.7,2.5-1.3,4.1-1.3
		c2.5,0,3.8,1.5,3.8,4.4v6h-1.9l-0.2-1.1h-0.1c-0.9,0.8-1.9,1.4-3.1,1.4C87.4,405.1,86.1,403.9,86.2,402.2L86.2,402.2z M92.1,402.2
		v-2.3c-2.7,0.3-3.6,1.1-3.6,2.1c0,0.9,0.6,1.3,1.4,1.3S91.3,402.9,92.1,402.2L92.1,402.2z"/>
	<path class="st7" d="M100.8,399.8c0-3.3,2.1-5.3,4.3-5.3c1.1,0,1.9,0.4,2.6,1.1l-0.1-1.6v-3.6h2.4v14.5H108l-0.2-1.1h-0.1
		c-0.8,0.8-1.8,1.3-2.9,1.3C102.4,405.1,100.8,403.2,100.8,399.8L100.8,399.8z M107.6,402v-4.7c-0.7-0.6-1.4-0.8-2.1-0.8
		c-1.3,0-2.3,1.2-2.3,3.3s0.8,3.4,2.3,3.4C106.3,403.2,106.9,402.8,107.6,402z"/>
	<path class="st7" d="M112.3,399.8c0-3.3,2.3-5.3,4.6-5.3c2.7,0,4.2,2,4.2,4.8c0,0.5-0.1,0.9-0.1,1.1h-6.4c0.2,1.8,1.3,2.8,3,2.8
		c0.9,0,1.6-0.3,2.3-0.7l0.8,1.5c-1,0.6-2.2,1.1-3.4,1.1C114.5,405.1,112.3,403.2,112.3,399.8L112.3,399.8z M119.1,398.9
		c0-1.5-0.7-2.5-2.1-2.5c-1.2,0-2.2,0.9-2.4,2.5H119.1z"/>
	<path class="st7" d="M125.9,391.5h2.5l1.9,6.7c0.4,1.5,0.7,2.8,1.2,4.4h0.1c0.4-1.5,0.8-2.8,1.2-4.4l1.9-6.7h2.4l-4.1,13.4H130
		L125.9,391.5L125.9,391.5z"/>
	<path class="st7" d="M137.4,399.8c0-3.3,2.3-5.3,4.6-5.3c2.7,0,4.2,2,4.2,4.8c0,0.5-0.1,0.9-0.1,1.1h-6.4c0.2,1.8,1.4,2.8,3,2.8
		c0.9,0,1.6-0.3,2.3-0.7l0.8,1.5c-1,0.6-2.2,1.1-3.4,1.1C139.6,405.1,137.4,403.2,137.4,399.8L137.4,399.8z M144.2,398.9
		c0-1.5-0.7-2.5-2.1-2.5c-1.2,0-2.2,0.9-2.4,2.5H144.2L144.2,398.9z"/>
	<path class="st7" d="M148.5,394.8h1.9l0.2,1.4h0.1c0.9-0.9,1.9-1.6,3.3-1.6c2.2,0,3.1,1.5,3.1,4v6.3h-2.4v-6c0-1.7-0.5-2.3-1.6-2.3
		c-0.9,0-1.5,0.4-2.3,1.3v7h-2.4L148.5,394.8L148.5,394.8z"/>
	<path class="st7" d="M159.3,399.8c0-3.4,2.4-5.3,5.1-5.3c1.3,0,2.2,0.5,2.9,1.1l-1.1,1.5c-0.5-0.5-1-0.7-1.7-0.7
		c-1.6,0-2.8,1.3-2.8,3.4s1.1,3.4,2.7,3.4c0.8,0,1.5-0.4,2.1-0.9l1,1.6c-0.9,0.8-2.1,1.2-3.3,1.2
		C161.4,405.1,159.3,403.2,159.3,399.8L159.3,399.8z"/>
	<path class="st7" d="M169.2,391.7c0-0.8,0.6-1.3,1.5-1.3s1.5,0.5,1.5,1.3s-0.6,1.3-1.5,1.3S169.2,392.5,169.2,391.7z M169.5,394.8
		h2.4v10.1h-2.4V394.8z"/>
	<path class="st7" d="M174.8,394.8h1.9l0.2,1.4h0.1c0.9-0.9,1.8-1.6,3.1-1.6c1.5,0,2.3,0.7,2.8,1.8c1-1,2-1.8,3.2-1.8
		c2.1,0,3.1,1.5,3.1,4v6.3h-2.4v-6c0-1.7-0.5-2.3-1.6-2.3c-0.6,0-1.3,0.4-2.1,1.3v7h-2.4v-6c0-1.7-0.5-2.3-1.6-2.3
		c-0.6,0-1.3,0.4-2.1,1.3v7h-2.4L174.8,394.8L174.8,394.8z"/>
	<path class="st7" d="M191.9,391.7c0-0.8,0.6-1.3,1.5-1.3s1.5,0.5,1.5,1.3s-0.6,1.3-1.5,1.3S191.9,392.5,191.9,391.7z M192.1,394.8
		h2.4v10.1h-2.4V394.8z"/>
	<path class="st7" d="M196.8,399.8c0-3.3,2.3-5.3,4.6-5.3c2.7,0,4.2,2,4.2,4.8c0,0.5-0.1,0.9-0.1,1.1h-6.4c0.2,1.8,1.4,2.8,3,2.8
		c0.9,0,1.6-0.3,2.3-0.7l0.8,1.5c-1,0.6-2.2,1.1-3.4,1.1C199,405.1,196.8,403.2,196.8,399.8L196.8,399.8z M203.6,398.9
		c0-1.5-0.7-2.5-2.1-2.5c-1.2,0-2.2,0.9-2.4,2.5H203.6L203.6,398.9z"/>
	<path class="st7" d="M207.9,394.8h1.9l0.2,1.4h0.1c0.9-0.9,1.9-1.6,3.3-1.6c2.2,0,3.1,1.5,3.1,4v6.3h-2.4v-6c0-1.7-0.5-2.3-1.6-2.3
		c-0.9,0-1.5,0.4-2.3,1.3v7h-2.4L207.9,394.8L207.9,394.8z"/>
	<path class="st7" d="M219.7,401.5v-4.8h-1.4v-1.8l1.6-0.1l0.3-2.8h2v2.8h2.6v1.9h-2.6v4.8c0,1.2,0.5,1.8,1.4,1.8
		c0.3,0,0.8-0.1,1.1-0.2l0.4,1.7c-0.6,0.2-1.2,0.4-2.1,0.4C220.6,405.1,219.7,403.6,219.7,401.5z"/>
	<path class="st7" d="M225.8,399.8c0-3.4,2.3-5.3,4.8-5.3s4.8,1.9,4.8,5.3s-2.3,5.3-4.8,5.3S225.8,403.2,225.8,399.8z M232.9,399.8
		c0-2-0.9-3.4-2.4-3.4s-2.4,1.3-2.4,3.4s0.9,3.4,2.4,3.4S232.9,401.9,232.9,399.8z"/>
</g>
<g>
	<path class="st7" d="M266.5,397.3c0-4.4,2.8-7,6.1-7c1.7,0,3,0.8,3.9,1.7l-1.3,1.5c-0.7-0.7-1.5-1.2-2.5-1.2
		c-2.2,0-3.8,1.9-3.8,4.9s1.4,4.9,3.7,4.9c1.2,0,2.1-0.5,2.9-1.4l1.3,1.5c-1.1,1.3-2.5,2-4.2,2C269.2,404.2,266.5,401.7,266.5,397.3
		L266.5,397.3z"/>
	<path class="st7" d="M277.7,390.6h2.5l1.9,6.7c0.4,1.5,0.7,2.8,1.2,4.4h0.1c0.5-1.5,0.8-2.8,1.2-4.4l1.9-6.7h2.4l-4.1,13.4h-2.8
		L277.7,390.6L277.7,390.6z"/>
	<path class="st7" d="M289.5,390.6h2.5l1.9,6.7c0.4,1.5,0.7,2.8,1.2,4.4h0.1c0.5-1.5,0.8-2.8,1.2-4.4l1.9-6.7h2.4l-4.1,13.4h-2.8
		L289.5,390.6L289.5,390.6z"/>
</g>
<g>
	<path class="st9" d="M120.3,97.7h1.7v9.8h-1.7V97.7z"/>
	<path class="st9" d="M124.3,100.2h1.4l0.1,1h0.1c0.7-0.6,1.4-1.2,2.4-1.2c1.6,0,2.3,1.1,2.3,2.9v4.6h-1.7v-4.4
		c0-1.2-0.4-1.7-1.2-1.7c-0.7,0-1.1,0.3-1.7,0.9v5.2h-1.7V100.2z"/>
	<path class="st9" d="M132.2,108.9c0-0.6,0.4-1.2,1.1-1.6v-0.1c-0.4-0.2-0.7-0.6-0.7-1.2s0.4-1.1,0.8-1.4v-0.1c-0.5-0.4-1-1.1-1-1.9
		c0-1.7,1.4-2.7,2.9-2.7c0.4,0,0.8,0.1,1.1,0.2h2.6v1.3h-1.3c0.2,0.3,0.4,0.7,0.4,1.2c0,1.6-1.2,2.5-2.8,2.5c-0.3,0-0.7-0.1-1-0.2
		c-0.2,0.2-0.4,0.4-0.4,0.7c0,0.4,0.3,0.7,1.2,0.7h1.3c1.8,0,2.7,0.6,2.7,1.8c0,1.4-1.5,2.6-3.9,2.6
		C133.6,110.8,132.2,110.2,132.2,108.9L132.2,108.9z M137.6,108.5c0-0.6-0.5-0.7-1.3-0.7h-1c-0.4,0-0.7,0-1-0.1
		c-0.4,0.3-0.6,0.6-0.6,1c0,0.7,0.7,1.1,1.9,1.1S137.6,109.1,137.6,108.5z M136.7,102.6c0-0.9-0.6-1.4-1.3-1.4s-1.3,0.5-1.3,1.4
		s0.6,1.5,1.3,1.5S136.7,103.6,136.7,102.6z"/>
	<path class="st9" d="M140.6,100.2h1.4l0.1,1.3h0.1c0.5-1,1.3-1.5,2.1-1.5c0.4,0,0.6,0.1,0.8,0.2l-0.3,1.5c-0.3-0.1-0.4-0.1-0.8-0.1
		c-0.6,0-1.3,0.4-1.7,1.5v4.5h-1.7L140.6,100.2L140.6,100.2z"/>
	<path class="st9" d="M145.5,103.8c0-2.4,1.7-3.9,3.4-3.9c2,0,3,1.4,3,3.5c0,0.3,0,0.7-0.1,0.8h-4.7c0.1,1.3,1,2.1,2.2,2.1
		c0.6,0,1.2-0.2,1.7-0.5l0.6,1.1c-0.7,0.5-1.6,0.8-2.5,0.8C147.1,107.7,145.5,106.3,145.5,103.8L145.5,103.8z M150.4,103.1
		c0-1.1-0.5-1.8-1.5-1.8c-0.9,0-1.6,0.6-1.8,1.8H150.4L150.4,103.1z"/>
	<path class="st9" d="M152.9,106.7l0.8-1.1c0.6,0.5,1.3,0.8,2,0.8c0.8,0,1.2-0.4,1.2-0.9c0-0.6-0.8-0.9-1.6-1.2
		c-1-0.4-2.1-0.9-2.1-2.2s1-2.2,2.7-2.2c1,0,1.9,0.4,2.4,0.9l-0.8,1.1c-0.5-0.4-1-0.6-1.6-0.6c-0.7,0-1.1,0.3-1.1,0.8
		c0,0.6,0.7,0.8,1.5,1.1c1,0.4,2.1,0.8,2.1,2.2c0,1.3-1,2.3-2.9,2.3C154.7,107.7,153.6,107.3,152.9,106.7L152.9,106.7z"/>
	<path class="st9" d="M159.6,103.8c0-2.4,1.7-3.9,3.4-3.9c2,0,3,1.4,3,3.5c0,0.3,0,0.7-0.1,0.8h-4.7c0.1,1.3,1,2.1,2.2,2.1
		c0.6,0,1.2-0.2,1.7-0.5l0.6,1.1c-0.7,0.5-1.6,0.8-2.5,0.8C161.2,107.7,159.6,106.3,159.6,103.8L159.6,103.8z M164.5,103.1
		c0-1.1-0.5-1.8-1.5-1.8c-0.9,0-1.6,0.6-1.8,1.8H164.5L164.5,103.1z"/>
	<path class="st9" d="M170.7,105.6v-8.7h1.7v8.8c0,0.4,0.2,0.6,0.4,0.6c0.1,0,0.1,0,0.3,0l0.2,1.3c-0.2,0.1-0.5,0.2-0.9,0.2
		C171.1,107.7,170.7,106.9,170.7,105.6L170.7,105.6z"/>
	<path class="st9" d="M174.2,103.8c0-2.4,1.7-3.9,3.5-3.9s3.5,1.4,3.5,3.9s-1.7,3.9-3.5,3.9S174.2,106.3,174.2,103.8z M179.5,103.8
		c0-1.5-0.6-2.5-1.7-2.5s-1.7,1-1.7,2.5s0.6,2.4,1.7,2.4S179.5,105.3,179.5,103.8z"/>
	<path class="st9" d="M182.2,106.7l0.8-1.1c0.6,0.5,1.3,0.8,2,0.8c0.8,0,1.2-0.4,1.2-0.9c0-0.6-0.8-0.9-1.6-1.2
		c-1-0.4-2.1-0.9-2.1-2.2s1-2.2,2.7-2.2c1,0,1.9,0.4,2.4,0.9l-0.8,1.1c-0.5-0.4-1-0.6-1.6-0.6c-0.7,0-1.1,0.3-1.1,0.8
		c0,0.6,0.7,0.8,1.5,1.1c1,0.4,2.1,0.8,2.1,2.2c0,1.3-1,2.3-2.9,2.3C184,107.7,182.9,107.3,182.2,106.7L182.2,106.7z"/>
	<path class="st9" d="M191.9,103.8c0-2.4,1.5-3.9,3.1-3.9c0.8,0,1.4,0.3,1.9,0.8l-0.1-1.2v-2.7h1.7v10.6h-1.4l-0.1-0.8H197
		c-0.6,0.6-1.3,1-2.1,1C193.1,107.7,191.9,106.3,191.9,103.8L191.9,103.8z M196.9,105.4V102c-0.5-0.4-1-0.6-1.5-0.6
		c-0.9,0-1.7,0.9-1.7,2.4s0.6,2.4,1.7,2.4C195.9,106.3,196.4,106,196.9,105.4L196.9,105.4z"/>
	<path class="st9" d="M200.4,105.6c0-1.6,1.3-2.4,4.3-2.7c0-0.8-0.3-1.4-1.3-1.4c-0.7,0-1.4,0.3-2.1,0.7l-0.6-1.2c0.8-0.5,1.9-1,3-1
		c1.8,0,2.8,1.1,2.8,3.2v4.4h-1.4l-0.1-0.8h-0.1c-0.7,0.6-1.4,1-2.3,1C201.3,107.7,200.4,106.8,200.4,105.6L200.4,105.6z
		 M204.8,105.6v-1.7c-2,0.2-2.7,0.8-2.7,1.5c0,0.7,0.4,0.9,1.1,0.9S204.2,106.1,204.8,105.6z"/>
	<path class="st9" d="M208.6,105v-3.5h-1.1v-1.3l1.1-0.1l0.2-2h1.4v2h1.9v1.4h-1.9v3.5c0,0.9,0.3,1.3,1,1.3c0.2,0,0.6-0.1,0.8-0.2
		l0.3,1.3c-0.4,0.1-0.9,0.3-1.5,0.3C209.2,107.7,208.6,106.6,208.6,105L208.6,105z"/>
	<path class="st9" d="M213,103.8c0-2.4,1.7-3.9,3.5-3.9s3.5,1.4,3.5,3.9s-1.7,3.9-3.5,3.9S213,106.3,213,103.8z M218.3,103.8
		c0-1.5-0.6-2.5-1.7-2.5s-1.7,1-1.7,2.5s0.6,2.4,1.7,2.4S218.3,105.3,218.3,103.8z"/>
	<path class="st9" d="M221,106.7l0.8-1.1c0.6,0.5,1.3,0.8,2,0.8c0.8,0,1.2-0.4,1.2-0.9c0-0.6-0.8-0.9-1.6-1.2
		c-1-0.4-2.1-0.9-2.1-2.2s1-2.2,2.7-2.2c1,0,1.9,0.4,2.4,0.9l-0.8,1.1c-0.5-0.4-1-0.6-1.6-0.6c-0.7,0-1.1,0.3-1.1,0.8
		c0,0.6,0.7,0.8,1.5,1.1c1,0.4,2.1,0.8,2.1,2.2c0,1.3-1,2.3-2.9,2.3C222.7,107.7,221.7,107.3,221,106.7L221,106.7z"/>
	<path class="st9" d="M230.7,103.8c0-2.4,1.5-3.9,3.1-3.9c0.8,0,1.4,0.3,1.9,0.8l-0.1-1.2v-2.7h1.7v10.6H236l-0.1-0.8h-0.1
		c-0.6,0.6-1.3,1-2.1,1C231.9,107.7,230.7,106.3,230.7,103.8L230.7,103.8z M235.7,105.4V102c-0.5-0.4-1-0.6-1.5-0.6
		c-0.9,0-1.7,0.9-1.7,2.4s0.6,2.4,1.7,2.4C234.7,106.3,235.2,106,235.7,105.4L235.7,105.4z"/>
	<path class="st9" d="M239.1,103.8c0-2.4,1.7-3.9,3.4-3.9c2,0,3,1.4,3,3.5c0,0.3,0,0.7-0.1,0.8h-4.7c0.1,1.3,1,2.1,2.2,2.1
		c0.6,0,1.2-0.2,1.7-0.5l0.6,1.1c-0.7,0.5-1.6,0.8-2.5,0.8C240.7,107.7,239.1,106.3,239.1,103.8L239.1,103.8z M244.1,103.1
		c0-1.1-0.5-1.8-1.5-1.8c-0.9,0-1.6,0.6-1.8,1.8H244.1L244.1,103.1z"/>
	<path class="st9" d="M249.5,106.7l0.8-1.1c0.6,0.5,1.3,0.8,2,0.8c0.8,0,1.2-0.4,1.2-0.9c0-0.6-0.8-0.9-1.6-1.2
		c-1-0.4-2.1-0.9-2.1-2.2s1-2.2,2.7-2.2c1,0,1.9,0.4,2.4,0.9l-0.8,1.1c-0.5-0.4-1-0.6-1.6-0.6c-0.7,0-1.1,0.3-1.1,0.8
		c0,0.6,0.7,0.8,1.5,1.1c1,0.4,2.1,0.8,2.1,2.2c0,1.3-1,2.3-2.9,2.3C251.3,107.7,250.2,107.3,249.5,106.7L249.5,106.7z"/>
	<path class="st9" d="M256.6,104.8v-4.6h1.7v4.4c0,1.2,0.4,1.7,1.1,1.7c0.6,0,1.1-0.3,1.6-1v-5.1h1.7v7.4h-1.4l-0.1-1.1h0
		c-0.6,0.8-1.4,1.3-2.4,1.3C257.3,107.7,256.6,106.6,256.6,104.8L256.6,104.8z"/>
	<path class="st9" d="M268.3,105v-3.5h-1v-1.3l1.1-0.1l0.2-2h1.4v2h1.9v1.4H270v3.5c0,0.9,0.3,1.3,1,1.3c0.2,0,0.5-0.1,0.8-0.2
		l0.3,1.3c-0.4,0.1-0.9,0.3-1.5,0.3C268.9,107.7,268.3,106.6,268.3,105L268.3,105z"/>
	<path class="st9" d="M272.7,105.6c0-1.6,1.3-2.4,4.3-2.7c0-0.8-0.3-1.4-1.3-1.4c-0.7,0-1.4,0.3-2.1,0.7L273,101c0.8-0.5,1.9-1,3-1
		c1.8,0,2.8,1.1,2.8,3.2v4.4h-1.4l-0.1-0.8h0c-0.7,0.6-1.4,1-2.3,1C273.6,107.7,272.7,106.8,272.7,105.6L272.7,105.6z M277.1,105.6
		v-1.7c-2,0.2-2.7,0.8-2.7,1.5c0,0.7,0.4,0.9,1.1,0.9S276.5,106.1,277.1,105.6z"/>
	<path class="st9" d="M280.9,100.2h1.4l0.1,1.3h0c0.5-1,1.3-1.5,2.1-1.5c0.4,0,0.6,0.1,0.8,0.2l-0.3,1.5c-0.3-0.1-0.5-0.1-0.8-0.1
		c-0.6,0-1.3,0.4-1.7,1.5v4.5h-1.7L280.9,100.2L280.9,100.2z"/>
	<path class="st9" d="M284.7,110.4l0.3-1.3c0.2,0.1,0.4,0.1,0.6,0.1c0.7,0,0.9-0.5,0.9-1.3v-7.8h1.7v7.8c0,1.6-0.6,2.7-2.3,2.7
		C285.3,110.6,285,110.5,284.7,110.4L284.7,110.4z M286.3,97.9c0-0.6,0.5-1,1.1-1s1.1,0.4,1.1,1s-0.5,1-1.1,1S286.3,98.5,286.3,97.9
		z"/>
	<path class="st9" d="M289.9,103.8c0-2.4,1.7-3.9,3.4-3.9c2,0,3,1.4,3,3.5c0,0.3,0,0.7-0.1,0.8h-4.7c0.1,1.3,1,2.1,2.2,2.1
		c0.6,0,1.2-0.2,1.7-0.5l0.6,1.1c-0.7,0.5-1.6,0.8-2.5,0.8C291.5,107.7,289.9,106.3,289.9,103.8L289.9,103.8z M294.9,103.1
		c0-1.1-0.5-1.8-1.5-1.8c-0.9,0-1.6,0.6-1.8,1.8H294.9L294.9,103.1z"/>
	<path class="st9" d="M298.1,105v-3.5h-1v-1.3l1.1-0.1l0.2-2h1.4v2h1.9v1.4h-1.9v3.5c0,0.9,0.3,1.3,1,1.3c0.2,0,0.5-0.1,0.8-0.2
		l0.3,1.3c-0.4,0.1-0.9,0.3-1.5,0.3C298.7,107.7,298.1,106.6,298.1,105L298.1,105z"/>
	<path class="st9" d="M302.6,105.6c0-1.6,1.3-2.4,4.3-2.7c0-0.8-0.3-1.4-1.3-1.4c-0.7,0-1.4,0.3-2.1,0.7l-0.6-1.2c0.8-0.5,1.9-1,3-1
		c1.8,0,2.8,1.1,2.8,3.2v4.4h-1.4l-0.1-0.8h0c-0.7,0.6-1.4,1-2.3,1C303.4,107.7,302.5,106.8,302.6,105.6L302.6,105.6z M306.9,105.6
		v-1.7c-2,0.2-2.7,0.8-2.7,1.5c0,0.7,0.4,0.9,1.1,0.9S306.3,106.1,306.9,105.6z"/>
	<path class="st9" d="M156.1,121.8c0-2.4,1.5-3.9,3.1-3.9c0.8,0,1.4,0.3,1.9,0.8l-0.1-1.2v-2.7h1.7v10.6h-1.4l-0.1-0.8h-0.1
		c-0.6,0.6-1.3,1-2.1,1C157.3,125.7,156.1,124.3,156.1,121.8L156.1,121.8z M161.1,123.4V120c-0.5-0.4-1-0.6-1.5-0.6
		c-0.9,0-1.7,0.9-1.7,2.4s0.6,2.4,1.7,2.4C160.1,124.3,160.6,124,161.1,123.4L161.1,123.4z"/>
	<path class="st9" d="M164.6,121.8c0-2.4,1.7-3.9,3.4-3.9c2,0,3,1.4,3,3.5c0,0.3,0,0.7-0.1,0.8h-4.7c0.1,1.3,1,2.1,2.2,2.1
		c0.6,0,1.2-0.2,1.7-0.5l0.6,1.1c-0.7,0.5-1.6,0.8-2.5,0.8C166.1,125.7,164.5,124.3,164.6,121.8L164.6,121.8z M169.5,121.1
		c0-1.1-0.5-1.8-1.5-1.8c-0.9,0-1.6,0.6-1.8,1.8H169.5L169.5,121.1z"/>
	<path class="st9" d="M175.2,121.8c0-2.4,1.7-3.9,3.7-3.9c0.9,0,1.6,0.4,2.1,0.8l-0.8,1.1c-0.4-0.3-0.8-0.5-1.2-0.5
		c-1.2,0-2,1-2,2.5s0.8,2.4,2,2.4c0.6,0,1.1-0.3,1.5-0.6l0.7,1.1c-0.7,0.6-1.6,0.9-2.4,0.9C176.7,125.7,175.2,124.3,175.2,121.8
		L175.2,121.8z"/>
	<path class="st9" d="M182.6,118.2h1.4l0.1,1.3h0.1c0.5-1,1.3-1.5,2.1-1.5c0.4,0,0.6,0.1,0.8,0.2l-0.3,1.5c-0.3-0.1-0.4-0.1-0.8-0.1
		c-0.6,0-1.3,0.4-1.7,1.5v4.5h-1.7L182.6,118.2L182.6,118.2z"/>
	<path class="st9" d="M187.5,121.8c0-2.4,1.7-3.9,3.4-3.9c2,0,3,1.4,3,3.5c0,0.3,0,0.7-0.1,0.8h-4.7c0.1,1.3,1,2.1,2.2,2.1
		c0.6,0,1.2-0.2,1.7-0.5l0.6,1.1c-0.7,0.5-1.6,0.8-2.5,0.8C189.1,125.7,187.5,124.3,187.5,121.8L187.5,121.8z M192.5,121.1
		c0-1.1-0.5-1.8-1.5-1.8c-0.9,0-1.6,0.6-1.8,1.8H192.5L192.5,121.1z"/>
	<path class="st9" d="M195.2,121.8c0-2.4,1.5-3.9,3.1-3.9c0.8,0,1.4,0.3,1.9,0.8l-0.1-1.2v-2.7h1.7v10.6h-1.4l-0.1-0.8h-0.1
		c-0.5,0.6-1.3,1-2.1,1C196.3,125.7,195.2,124.3,195.2,121.8L195.2,121.8z M200.2,123.4V120c-0.5-0.4-1-0.6-1.5-0.6
		c-0.9,0-1.7,0.9-1.7,2.4s0.6,2.4,1.7,2.4C199.2,124.3,199.7,124,200.2,123.4L200.2,123.4z"/>
	<path class="st9" d="M203.9,115.9c0-0.6,0.5-1,1.1-1s1.1,0.4,1.1,1s-0.5,1-1.1,1S203.9,116.5,203.9,115.9z M204.1,118.2h1.7v7.4
		h-1.7V118.2z"/>
	<path class="st9" d="M208.3,123v-3.5h-1.1v-1.3l1.1-0.1l0.2-2h1.4v2h1.9v1.4H210v3.5c0,0.9,0.3,1.3,1,1.3c0.2,0,0.6-0.1,0.8-0.2
		l0.3,1.3c-0.4,0.1-0.9,0.3-1.5,0.3C208.9,125.7,208.2,124.6,208.3,123L208.3,123z"/>
	<path class="st9" d="M212.7,121.8c0-2.4,1.7-3.9,3.5-3.9s3.5,1.4,3.5,3.9s-1.7,3.9-3.5,3.9S212.7,124.3,212.7,121.8z M217.9,121.8
		c0-1.5-0.6-2.5-1.7-2.5s-1.7,1-1.7,2.5s0.6,2.4,1.7,2.4S217.9,123.3,217.9,121.8z"/>
	<path class="st9" d="M223.9,121.8c0-2.4,1.7-3.9,3.5-3.9s3.5,1.4,3.5,3.9s-1.7,3.9-3.5,3.9S223.9,124.3,223.9,121.8z M229.1,121.8
		c0-1.5-0.6-2.5-1.7-2.5s-1.7,1-1.7,2.5s0.6,2.4,1.7,2.4S229.1,123.3,229.1,121.8z"/>
	<path class="st9" d="M235,121.8c0-2.4,1.5-3.9,3.1-3.9c0.8,0,1.4,0.3,1.9,0.8l-0.1-1.2v-2.7h1.7v10.6h-1.4l-0.1-0.8h-0.1
		c-0.5,0.6-1.3,1-2.1,1C236.2,125.7,235,124.3,235,121.8L235,121.8z M240,123.4V120c-0.5-0.4-1-0.6-1.5-0.6c-0.9,0-1.7,0.9-1.7,2.4
		s0.6,2.4,1.7,2.4C239.1,124.3,239.5,124,240,123.4L240,123.4z"/>
	<path class="st9" d="M243.4,121.8c0-2.4,1.7-3.9,3.4-3.9c2,0,3,1.4,3,3.5c0,0.3,0,0.7-0.1,0.8h-4.7c0.1,1.3,1,2.1,2.2,2.1
		c0.6,0,1.2-0.2,1.7-0.5l0.6,1.1c-0.7,0.5-1.6,0.8-2.5,0.8C245,125.7,243.4,124.3,243.4,121.8L243.4,121.8z M248.4,121.1
		c0-1.1-0.5-1.8-1.5-1.8c-0.9,0-1.6,0.6-1.8,1.8H248.4L248.4,121.1z M245.9,116.1l2.2-2.6l1.2,1.2l-2.5,2.3L245.9,116.1L245.9,116.1
		z"/>
	<path class="st9" d="M253.1,124.8L253.1,124.8l-0.2,0.8h-1.4v-10.6h1.7v2.7l-0.1,1.2c0.6-0.5,1.4-0.9,2.1-0.9
		c1.8,0,2.9,1.5,2.9,3.7c0,2.5-1.5,4-3.1,4C254.5,125.7,253.7,125.3,253.1,124.8L253.1,124.8z M256.5,121.7c0-1.5-0.5-2.3-1.6-2.3
		c-0.5,0-1.1,0.3-1.6,0.8v3.4c0.5,0.4,1.1,0.6,1.5,0.6C255.7,124.3,256.5,123.4,256.5,121.7z"/>
	<path class="st9" d="M259.8,115.9c0-0.6,0.5-1,1.1-1s1.1,0.4,1.1,1s-0.5,1-1.1,1S259.8,116.5,259.8,115.9z M260,118.2h1.7v7.4H260
		V118.2z"/>
	<path class="st9" d="M264.2,123v-3.5h-1v-1.3l1.1-0.1l0.2-2h1.4v2h1.9v1.4h-1.9v3.5c0,0.9,0.3,1.3,1,1.3c0.2,0,0.5-0.1,0.8-0.2
		l0.3,1.3c-0.4,0.1-0.9,0.3-1.5,0.3C264.8,125.7,264.2,124.6,264.2,123L264.2,123z"/>
	<path class="st9" d="M268.6,121.8c0-2.4,1.7-3.9,3.5-3.9s3.5,1.4,3.5,3.9s-1.7,3.9-3.5,3.9S268.6,124.3,268.6,121.8z M273.8,121.8
		c0-1.5-0.6-2.5-1.7-2.5s-1.7,1-1.7,2.5s0.6,2.4,1.7,2.4S273.8,123.3,273.8,121.8z"/>
</g>
<path class="st8" d="M49.6,239.9H197c3.9,0,7,3.1,7,7v29.8c0,3.9-3.1,7-7,7H49.6c-3.9,0-7-3.1-7-7v-29.8
	C42.6,243,45.7,239.9,49.6,239.9z"/>
<g>
	<path class="st7" d="M231.4,217.1h2.8l4.4,13.4H236l-2-7.1c-0.4-1.4-0.8-2.9-1.2-4.4h-0.1c-0.4,1.5-0.8,3-1.2,4.4l-2.1,7.1H227
		L231.4,217.1L231.4,217.1z M229.6,225h6.3v1.9h-6.3V225z"/>
	<path class="st7" d="M240,220.4h1.9l0.2,1.1h0.1c0.9-0.7,1.9-1.3,3-1.3c2.5,0,4,2,4,5.1c0,3.4-2.1,5.4-4.3,5.4
		c-0.9,0-1.8-0.4-2.6-1.1l0.1,1.7v3.2H240L240,220.4L240,220.4z M246.8,225.3c0-2-0.7-3.2-2.2-3.2c-0.7,0-1.4,0.4-2.2,1.1v4.7
		c0.7,0.6,1.4,0.8,2,0.8C245.7,228.8,246.8,227.6,246.8,225.3z"/>
	<path class="st7" d="M250.9,225.4c0-3.3,2.3-5.3,4.6-5.3c2.7,0,4.2,2,4.2,4.8c0,0.4,0,0.9-0.1,1.1h-6.4c0.2,1.8,1.4,2.8,3,2.8
		c0.9,0,1.6-0.3,2.3-0.7l0.8,1.5c-1,0.6-2.2,1.1-3.4,1.1C253.1,230.7,250.9,228.8,250.9,225.4L250.9,225.4z M257.7,224.5
		c0-1.6-0.7-2.5-2.1-2.5c-1.2,0-2.2,0.9-2.4,2.5H257.7z"/>
	<path class="st7" d="M262,227.9V216h2.4v12c0,0.6,0.3,0.8,0.5,0.8c0.1,0,0.2,0,0.4,0l0.3,1.8c-0.3,0.1-0.7,0.2-1.2,0.2
		C262.6,230.7,262,229.7,262,227.9L262,227.9z"/>
	<path class="st7" d="M267.5,227.9V216h2.4v12c0,0.6,0.3,0.8,0.5,0.8c0.1,0,0.2,0,0.4,0l0.3,1.8c-0.3,0.1-0.7,0.2-1.2,0.2
		C268.1,230.7,267.5,229.7,267.5,227.9L267.5,227.9z"/>
	<path class="st7" d="M272.8,217.3c0-0.8,0.6-1.3,1.5-1.3s1.5,0.5,1.5,1.3s-0.6,1.3-1.5,1.3S272.8,218.1,272.8,217.3z M273.1,220.4
		h2.4v10.1h-2.4V220.4z"/>
	<path class="st7" d="M277.8,225.4c0-3.3,2.1-5.3,4.3-5.3c1.1,0,1.9,0.4,2.6,1.1l-0.1-1.6V216h2.4v14.5h-1.9l-0.2-1.1h-0.1
		c-0.8,0.8-1.8,1.3-2.9,1.3C279.5,230.7,277.8,228.8,277.8,225.4L277.8,225.4z M284.7,227.6v-4.7c-0.7-0.6-1.4-0.8-2-0.8
		c-1.3,0-2.3,1.2-2.3,3.3s0.8,3.4,2.3,3.4C283.3,228.8,284,228.4,284.7,227.6L284.7,227.6z"/>
	<path class="st7" d="M289.4,225.4c0-3.4,2.3-5.3,4.8-5.3s4.8,1.9,4.8,5.3s-2.3,5.3-4.8,5.3S289.4,228.8,289.4,225.4z M296.5,225.4
		c0-2-0.9-3.4-2.4-3.4s-2.4,1.3-2.4,3.4s0.9,3.4,2.4,3.4S296.5,227.5,296.5,225.4z"/>
</g>
<path class="st8" d="M233.1,240.4h149c3.9,0,7,3.1,7,7v29.8c0,3.9-3.1,7-7,7h-149c-3.9,0-7-3.1-7-7v-29.8
	C226.1,243.6,229.2,240.4,233.1,240.4z"/>
<path class="st8" d="M274.5,414.4h72.8c4.4,0,8,3.6,8,8v24.9c0,4.4-3.6,8-8,8h-72.8c-4.4,0-8-3.6-8-8v-24.9
	C266.5,418,270.1,414.4,274.5,414.4z"/>
<path class="st8" d="M53.5,414.4h137.6c4.4,0,8,3.6,8,8v24.9c0,4.4-3.6,8-8,8H53.5c-4.4,0-8-3.6-8-8v-24.9
	C45.5,418,49,414.4,53.5,414.4z"/>
<path class="st9" d="M235.2,51.4c-6.4,0-11.5,5.2-11.5,11.5s5.2,11.5,11.5,11.5s11.5-5.2,11.5-11.5S241.6,51.4,235.2,51.4z M234,68
	l-4.3-4.2l1.8-1.8l2.5,2.4l5.4-5.6l1.8,1.8L234,68L234,68z M195.5,61.6h12.8v2.6h-12.8C195.5,64.2,195.5,61.6,195.5,61.6z M216,59.1
	h-20.5v-2.6H216V59.1z M219.9,69.3h-28.2c-0.7,0-1.3-0.6-1.3-1.3V51.4h32.8c3-3.2,7.3-5.1,12-5.1c2.3,0,4.4,0.5,6.4,1.3v-9
	c0-2.8-2.3-5.1-5.1-5.1h-46.1c-2.8,0-5.1,2.3-5.1,5.1v30.7c0,2.8,2.3,5.1,5.1,5.1h32.8C221.8,73,220.6,71.2,219.9,69.3L219.9,69.3z
	 M190.4,39.9c0-0.7,0.6-1.3,1.3-1.3h43.6c0.7,0,1.3,0.6,1.3,1.3v3.8h-46.1V39.9z"/>
<path class="st7" d="M403.4,420h-37.2c-2.1,0-3.7,1.7-3.7,3.7V446c0,2.1,1.7,3.7,3.7,3.7h37.2c2.1,0,3.7-1.7,3.7-3.7v-22.4
	C407.1,421.6,405.5,420,403.4,420z M403.4,445.1c0,0.5-0.4,0.9-0.9,0.9h-35.4c-0.5,0-0.9-0.4-0.9-0.9V433h37.2V445.1z M403.4,427.4
	h-37.2v-2.8c0-0.5,0.4-0.9,0.9-0.9h35.4c0.5,0,0.9,0.4,0.9,0.9V427.4z M386.7,438.6h-16.8v-1.9h16.8V438.6z M381.1,442.3h-11.2v-1.9
	h11.2V442.3z"/>
<g class="st10">
	<path class="st11" d="M410.6,429.2v5.2h-6.4l-2.4,1.2v-1.2h-2.2v-5.2H410.6L410.6,429.2z M411.7,428.4h-13.2v6.9h2.2v2l3.8-2h7.1
		L411.7,428.4L411.7,428.4z"/>
</g>
<g>
	<path class="st11" d="M401.6,432.1c0-0.8,0.5-1.2,1.1-1.2c0.3,0,0.5,0.1,0.7,0.3l-0.2,0.3c-0.1-0.1-0.3-0.2-0.5-0.2
		c-0.4,0-0.7,0.3-0.7,0.9s0.2,0.9,0.6,0.9c0.2,0,0.4-0.1,0.5-0.2l0.2,0.3c-0.2,0.2-0.4,0.3-0.8,0.3
		C402.1,433.3,401.6,432.9,401.6,432.1L401.6,432.1z"/>
	<path class="st11" d="M403.8,430.9h0.4l0.3,1.2c0.1,0.3,0.1,0.5,0.2,0.8h0c0.1-0.3,0.1-0.5,0.2-0.8l0.3-1.2h0.4l-0.7,2.4h-0.5
		L403.8,430.9L403.8,430.9z"/>
	<path class="st11" d="M406.1,430.9h0.4l0.3,1.2c0.1,0.3,0.1,0.5,0.2,0.8h0c0.1-0.3,0.1-0.5,0.2-0.8l0.3-1.2h0.4l-0.7,2.4h-0.5
		L406.1,430.9L406.1,430.9z"/>
</g>
<g>
	<path class="st11" d="M394.6,438.3h0.5v-1.3h-0.4v-0.2c0.2,0,0.3-0.1,0.5-0.2h0.3v1.7h0.4v0.3h-1.2L394.6,438.3L394.6,438.3z"/>
	<path class="st11" d="M396.4,438.4c0.6-0.5,0.9-0.9,0.9-1.2c0-0.2-0.1-0.4-0.3-0.4c-0.2,0-0.3,0.1-0.4,0.2l-0.2-0.2
		c0.2-0.2,0.4-0.3,0.6-0.3c0.4,0,0.6,0.2,0.6,0.6s-0.3,0.7-0.7,1.1c0.1,0,0.2,0,0.3,0h0.5v0.3h-1.4L396.4,438.4L396.4,438.4z"/>
	<path class="st11" d="M398.2,438.3l0.2-0.2c0.1,0.1,0.3,0.2,0.5,0.2c0.2,0,0.4-0.1,0.4-0.3c0-0.2-0.1-0.3-0.6-0.3v-0.3
		c0.4,0,0.5-0.1,0.5-0.3c0-0.2-0.1-0.3-0.3-0.3c-0.2,0-0.3,0.1-0.4,0.2l-0.2-0.2c0.2-0.1,0.4-0.2,0.6-0.2c0.4,0,0.6,0.2,0.6,0.5
		c0,0.2-0.1,0.4-0.4,0.5l0,0c0.2,0.1,0.4,0.2,0.4,0.5c0,0.4-0.3,0.6-0.7,0.6C398.6,438.6,398.4,438.5,398.2,438.3L398.2,438.3z"/>
</g>
<path class="st8" d="M102.5,430.2h0.9l-4,13h-0.9L102.5,430.2z"/>
</svg>
